# xmcd
#
# Track frame offsets: 
#        150
#        17520
#        31767
#        48030
#        62402
#        79497
#        92860
#        105590
#        121897
#        141897
#        161842
#        176927
#        197517
#        210762
#        222537
#        236097
#        251215
#        263615
#        274995
#        291500
#
# Disc length: 4179 seconds
#
# Revision: 0
# Processed by: cddbd v1.5.2PL0 Copyright (c) Steve Scherf et al.
# Submitted via: ExactAudioCopy v0.99pb4
#
DISCID=25105114
DTITLE=Tyrone Davis - The Complete Dakar Recordings Disc 3
DYEAR=1900
DGENRE=Soul
TTITLE0=Where Lovers Meet (At The Dark End Of The Street)
TTITLE1=You Don't Have To Beg Me To Stay
TTITLE2=What Goes Up (Must Come Down)
TTITLE3=There's Got To Be An Answer
TTITLE4=It's All In The Game
TTITLE5=Homewreckers
TTITLE6=It Ain't Me No More
TTITLE7=It's So Good (To Be Home With You)
TTITLE8=Turning Point
TTITLE9=Forever
TTITLE10=I Can't Bump (Part 1)
TTITLE11=Saving My Love For You
TTITLE12=Ever Lovin' Girl
TTITLE13=Don't Let It Be Too Late
TTITLE14=I Can't Bump (Part 2)
TTITLE15=You Keep Me Holding On
TTITLE16=That's Just My Way Of Lovin' You
TTITLE17=One Way Ticket To Nowhere
TTITLE18=Judge Me Right
TTITLE19=Turn Back The Hands Of Time
EXTD=
EXTT0=
EXTT1=
EXTT2=
EXTT3=
EXTT4=
EXTT5=
EXTT6=
EXTT7=
EXTT8=
EXTT9=
EXTT10=
EXTT11=
EXTT12=
EXTT13=
EXTT14=
EXTT15=
EXTT16=
EXTT17=
EXTT18=
EXTT19=
PLAYORDER=
